<?xml version="1.0" encoding="UTF-8" standalone="no"?>
<!-- Created with Inkscape (http://www.inkscape.org/) -->

<svg
   width="181.83224mm"
   height="23.199505mm"
   viewBox="0 0 181.83224 23.199505"
   version="1.1"
   id="svg1"
   xml:space="preserve"
   inkscape:export-filename="../site-haine/public/logo.svg"
   inkscape:export-xdpi="146.67039"
   inkscape:export-ydpi="146.67039"
   sodipodi:docname="logo2.svg"
   inkscape:version="1.4.3 (0d15f75042, 2025-12-25)"
   xmlns:inkscape="http://www.inkscape.org/namespaces/inkscape"
   xmlns:sodipodi="http://sodipodi.sourceforge.net/DTD/sodipodi-0.dtd"
   xmlns="http://www.w3.org/2000/svg"
   xmlns:svg="http://www.w3.org/2000/svg"><sodipodi:namedview
     id="namedview1"
     pagecolor="#ffffff"
     bordercolor="#000000"
     borderopacity="0.25"
     inkscape:showpageshadow="2"
     inkscape:pageopacity="0.0"
     inkscape:pagecheckerboard="0"
     inkscape:deskcolor="#d1d1d1"
     inkscape:document-units="mm"
     showguides="true"
     inkscape:zoom="1.4142136"
     inkscape:cx="335.52217"
     inkscape:cy="602.80853"
     inkscape:window-width="1033"
     inkscape:window-height="991"
     inkscape:window-x="26"
     inkscape:window-y="23"
     inkscape:window-maximized="0"
     inkscape:current-layer="layer1"><sodipodi:guide
       position="16.615225,23.059575"
       orientation="0,-1"
       id="guide10"
       inkscape:locked="false" /><sodipodi:guide
       position="7.6793359,0.15968481"
       orientation="0,-1"
       id="guide11"
       inkscape:locked="false" /><inkscape:page
       x="0"
       y="0"
       width="181.83224"
       height="23.199505"
       id="page2"
       margin="0"
       bleed="0" /></sodipodi:namedview><defs
     id="defs1" /><g
     inkscape:label="Layer 1"
     inkscape:groupmode="layer"
     id="layer1"
     transform="translate(-9.583693,-124.34343)"><path
       style="fill:#ffffff;stroke-width:0.131756"
       d="m 17.180186,147.38397 9.059327,-22.90031 10.195523,0.05 9.248155,22.85963 -9.074318,0.0522 -5.232509,-14.16775 -2.381574,6.46675 h 4.119949 l 2.868319,7.701 z"
       id="path1" /><path
       style="fill:#ffffff;stroke-width:0.131756"
       d="m 138.25343,147.38198 9.05932,-22.90031 10.19553,0.05 9.24815,22.85963 -9.07432,0.0522 -5.23251,-14.16775 -2.38157,6.46675 h 4.11995 l 2.86832,7.701 z"
       id="path1-8" /><path
       style="fill:#ffffff;stroke-width:0.131719"
       d="m 69.950842,124.49552 h 9.903288 l 3.366625,5.80114 3.346512,-5.79802 h 9.89883 l -6.659532,11.37793 7.175582,11.45479 -9.878714,0.0738 -5.381686,-8.4559 -0.466904,0.0246 1.769321,2.77766 -3.686085,5.70282 -9.927863,-0.0738 7.151008,-11.40563 z"
       id="path3" /><path
       style="fill:#ffffff;stroke-width:0.131756"
       d="m 98.840075,124.52054 8.358685,-0.0491 0.14751,14.65227 h 8.3095 l 0.0983,8.3095 -16.815696,-0.0983 z"
       id="path4" /><path
       id="path6"
       style="fill:#ffffff;stroke-width:0.131756"
       d="m 180.97033,124.34343 -11.54297,0.13953 -0.0698,22.87664 12.72532,0.0698 c 0,0 8.83051,-0.7651 9.31726,-11.40396 0.48674,-10.63886 -10.42985,-11.68197 -10.42985,-11.68197 z m 0.0832,8.86354 c 0,0 1.47536,1.18044 1.52446,2.75384 0.0492,1.5734 -1.77043,2.45825 -1.77043,2.45825 h -3.0484 v -5.16248 z" /><path
       id="path7"
       clip-path="none"
       style="fill:#ffffff;stroke-width:0.137793"
       d="m 128.09916,124.53048 a 11.417153,11.417153 0 0 0 -11.41738,11.41691 11.417153,11.417153 0 0 0 11.41738,11.41738 11.417153,11.417153 0 0 0 11.41691,-11.41738 11.417153,11.417153 0 0 0 -11.41691,-11.41691 z m -0.1268,7.48462 a 3.8057178,3.8057178 0 0 1 3.80548,3.80549 3.8057178,3.8057178 0 0 1 -3.80548,3.80595 3.8057178,3.8057178 0 0 1 -3.80595,-3.80595 3.8057178,3.8057178 0 0 1 3.80595,-3.80549 z" /><path
       id="path25"
       style="fill:#ffffff;stroke-width:0.264977"
       d="m 45.64941,124.47819 v 10.95179 2.31303 a 10.95638,10.95638 0 0 0 9.029423,9.63973 h 3.731555 a 10.95638,10.95638 0 0 0 9.063013,-10.02007 v -1.55287 -11.33161 z m 8.30957,0.01 h 5.050854 v 1.42317 10.60865 0.92139 a 2.5724692,2.549083 0 0 1 -2.335774,2.08101 h -0.38809 a 2.5724692,2.549083 0 0 1 -2.32699,-2.03295 v -1.01751 -10.53217 z" /><rect
       style="fill:#ffffff;fill-opacity:1;stroke-width:0.264583"
       id="rect29"
       width="5.051394"
       height="5.051394"
       x="9.5836935"
       y="142.32841" /></g></svg>
